<?xml version="1.0" standalone="no"?>
<!DOCTYPE svg PUBLIC "-//W3C//DTD SVG 20010904//EN"
 "http://www.w3.org/TR/2001/REC-SVG-20010904/DTD/svg10.dtd">
<svg version="1.0" xmlns="http://www.w3.org/2000/svg"
 width="197.000000pt" height="197.000000pt" viewBox="0 0 197.000000 197.000000"
 preserveAspectRatio="xMidYMid meet">
<metadata>
Created by potrace 1.14, written by Peter Selinger 2001-2017
</metadata>
<g transform="translate(0.000000,197.000000) scale(0.100000,-0.100000)"
fill="#000000" stroke="none">
<path d="M1548 1960 c-9 -6 -27 -10 -40 -9 -50 1 -79 -13 -174 -87 -117 -91
-270 -233 -339 -316 -11 -13 -41 -48 -66 -78 -54 -64 -72 -96 -64 -111 4 -5 1
-16 -5 -24 -18 -22 5 -45 43 -45 25 0 43 14 106 83 244 265 475 470 605 536
l66 34 -26 13 c-30 16 -82 18 -106 4z"/>
<path d="M835 1750 c-41 -6 -82 -24 -100 -44 -40 -44 -48 -61 -52 -98 -6 -67
22 -104 85 -113 39 -5 60 -2 94 13 76 33 129 98 98 117 -6 4 -7 11 -4 17 10
15 -16 28 -58 28 -43 0 -50 16 -13 30 14 5 25 14 25 20 0 5 0 13 1 17 1 13
-36 19 -76 13z"/>
<path d="M353 1691 c-25 -7 -75 -69 -67 -83 3 -4 -4 -24 -16 -44 -12 -19 -21
-37 -19 -38 2 -2 29 -16 59 -31 63 -31 175 -108 304 -207 80 -62 93 -69 129
-66 27 2 44 10 54 24 13 20 5 29 -119 155 -239 242 -300 297 -325 290z"/>
<path d="M831 1156 c-17 -20 -8 -45 43 -119 23 -34 82 -127 130 -207 114 -190
203 -332 215 -346 5 -6 44 -71 86 -145 43 -74 90 -152 105 -174 15 -22 39 -64
54 -92 21 -42 31 -53 51 -53 13 0 26 4 30 9 7 13 77 1 94 -16 7 -8 16 -12 20
-11 3 2 41 20 84 41 45 22 77 44 77 52 0 21 -197 290 -285 390 -39 44 -113
132 -165 195 -52 63 -97 117 -100 120 -3 3 -33 38 -68 77 -61 71 -208 218
-265 266 -32 27 -89 34 -106 13z"/>
<path d="M679 1132 c-43 -45 -128 -167 -202 -288 -48 -80 -229 -443 -273 -550
-19 -46 -34 -92 -34 -102 0 -25 42 -53 60 -42 8 5 22 4 32 -1 10 -6 33 -6 58
0 22 5 40 7 40 4 0 -3 7 0 15 7 8 7 15 23 15 36 0 12 4 25 9 28 5 3 12 27 16
53 7 51 148 416 214 558 23 47 64 122 93 167 53 83 61 116 34 144 -21 21 -48
16 -77 -14z"/>
</g>
</svg>
