<?xml version="1.0" encoding="UTF-8" standalone="no"?><!DOCTYPE svg PUBLIC "-//W3C//DTD SVG 1.1//EN" "http://www.w3.org/Graphics/SVG/1.1/DTD/svg11.dtd"><svg width="100%" height="100%" viewBox="0 0 3063 1243" version="1.1" xmlns="http://www.w3.org/2000/svg" xmlns:xlink="http://www.w3.org/1999/xlink" xml:space="preserve" xmlns:serif="http://www.serif.com/" style="fill-rule:evenodd;clip-rule:evenodd;stroke-linejoin:round;stroke-miterlimit:2;"><g id="Ebene-1" serif:id="Ebene 1"><path d="M306.435,626.01l-0,-137.583c-0,-21.667 -2.159,-31.746 -7.009,-39.3c-5.933,-8.571 -14.558,-12.604 -25.883,-12.604c-17.258,-0 -35.588,11.091 -49.067,26.204c0.538,4.033 0.538,8.566 0.538,14.112l-0,149.171l-56.617,0l0,-137.583c0,-21.667 -2.696,-31.242 -7.012,-38.3c-5.392,-8.567 -14.017,-13.604 -25.88,-13.604c-16.179,-0 -35.591,10.583 -48.533,26.204l0,163.283l-57.158,0l-0,-229.3l57.158,0l0,34.267l1.079,-0c18.334,-23.175 41.521,-40.817 73.334,-40.817c21.57,0 47.45,10.075 58.775,46.363l1.079,-0c19.95,-26.209 44.216,-46.363 78.187,-46.363c19.95,0 43.675,8.063 56.079,35.275c4.85,10.583 8.088,27.217 8.088,52.413l-0,148.162l-57.158,0Z" style="fill:#1a171b;fill-rule:nonzero;"/><path d="M417.933,396.708l56.621,0l0,229.3l-56.621,0l0,-229.3Zm28.042,-52.912c-19.413,-0 -34.512,-14.617 -34.512,-32.754c-0,-18.654 15.099,-33.267 34.512,-33.267c19.946,0 35.046,14.613 35.046,33.267c-0,18.137 -15.1,32.754 -35.046,32.754" style="fill:#1a171b;fill-rule:nonzero;"/><path d="M619.058,630.551c-36.666,-0 -67.945,-12.596 -67.945,-64.508l-0,-128.009l-43.675,-16.625l-0,-24.7l43.675,0l-0,-66.016l57.162,-0l0,66.016l61.471,0l-0,42.334l-61.471,-0l0,118.433c0,25.196 14.017,30.242 31.813,30.242c11.862,-0 24.266,-2.025 33.429,-4.038l-0,36.283c-10.779,5.042 -36.125,10.588 -54.459,10.588" style="fill:#1a171b;fill-rule:nonzero;"/><path d="M848.317,626.01l-0,-322.529l57.696,-0l-0,276.175l58.775,-0.008l64.704,-0l-0,46.362l-181.175,0Z" style="fill:#1a171b;fill-rule:nonzero;"/><path d="M1062.92,396.708l56.617,0l-0,229.3l-56.617,0l0,-229.3Zm28.038,-52.912c-19.409,-0 -34.509,-14.617 -34.509,-32.754c0,-18.654 15.1,-33.267 34.509,-33.267c19.949,0 35.05,14.613 35.05,33.267c-0,18.137 -15.101,32.754 -35.05,32.754" style="fill:#1a171b;fill-rule:nonzero;"/><path d="M1308.52,626.01l-0,-139.592c-0,-17.641 -2.158,-26.708 -5.933,-33.766c-7.009,-11.592 -17.792,-16.129 -29.659,-16.129c-17.791,-0 -37.2,11.091 -50.146,26.204l0,163.283l-57.154,0l0,-229.3l57.154,0l0,34.267l1.08,-0c17.258,-23.175 40.441,-40.817 74.416,-40.817c25.879,0 44.213,11.588 54.459,27.213c9.704,15.12 12.941,33.766 12.941,60.979l0,147.658l-57.158,0Z" style="fill:#1a171b;fill-rule:nonzero;"/><rect x="1919.67" y="303.246" width="57.163" height="322.767" style="fill:#1a171b;"/><path d="M2112.05,425.436c-23.725,0 -38.284,21.671 -38.821,68.038l74.408,-7.054c0,-30.742 -8.621,-60.984 -35.587,-60.984m92.208,94.742l-131.029,-0c1.617,49.396 22.646,72.071 69.017,72.071c20.491,-0 46.912,-6.05 57.154,-10.079l-0,34.27c-13.479,6.046 -41.517,15.117 -71.175,15.117c-59.846,0 -112.696,-32.25 -112.696,-115.912c-0,-78.617 42.6,-125.488 98.683,-125.488c63.621,0 91.125,56.95 91.125,110.875c0,6.046 -0.541,13.6 -1.079,19.146" style="fill:#1a171b;fill-rule:nonzero;"/><path d="M2299.58,471.44l0,154.571l-57.154,0l-0,-229.304l56.079,0l0,42.988l1.075,-0c13.479,-24.196 32.354,-45.359 64.708,-45.863l0,56.442c-26.425,-1.504 -45.833,3.533 -64.708,21.166" style="fill:#1a171b;fill-rule:nonzero;"/><path d="M2529.65,626.01l0,-139.592c0,-17.641 -2.158,-26.708 -5.929,-33.766c-7.013,-11.592 -17.792,-16.129 -29.658,-16.129c-17.796,-0 -37.209,11.091 -50.15,26.204l-0,163.283l-57.155,0l0,-229.3l57.155,0l-0,34.267l1.087,-0c17.246,-23.175 40.433,-40.817 74.404,-40.817c25.879,0 44.221,11.588 54.467,27.213c9.7,15.12 12.937,33.766 12.937,60.979l0,147.658l-57.158,0Z" style="fill:#1a171b;fill-rule:nonzero;"/><path d="M2717.07,425.436c-23.729,0 -38.284,21.671 -38.817,68.038l74.404,-7.054c0,-30.742 -8.625,-60.984 -35.587,-60.984m92.212,94.742l-131.029,-0c1.608,49.396 22.642,72.071 69.012,72.071c20.496,-0 46.913,-6.05 57.159,-10.079l-0,34.27c-13.479,6.046 -41.521,15.117 -71.179,15.117c-59.85,0 -112.696,-32.25 -112.696,-115.912c-0,-78.617 42.6,-125.488 98.679,-125.488c63.625,0 91.129,56.95 91.129,110.875c0,6.046 -0.542,13.6 -1.075,19.146" style="fill:#1a171b;fill-rule:nonzero;"/><path d="M2987.58,626.01l-0,-139.592c-0,-17.641 -2.159,-26.708 -5.934,-33.766c-7.004,-11.592 -17.787,-16.129 -29.654,-16.129c-17.796,-0 -37.208,11.091 -50.146,26.204l0,163.283l-57.158,0l0,-229.3l57.158,0l0,34.267l1.08,-0c17.254,-23.175 40.441,-40.817 74.412,-40.817c25.879,0 44.213,11.588 54.454,27.213c9.713,15.12 12.946,33.766 12.946,60.979l0,147.658l-57.158,0Z" style="fill:#1a171b;fill-rule:nonzero;"/><path d="M2021.8,132.366l7.287,-0c6.163,-0 11.809,-0.288 11.809,-6.913c-0,-5.566 -5.129,-6.433 -9.854,-6.433l-9.242,0l0,13.346Zm-6.983,-18.625l17.35,-0c10.683,-0 15.712,3.937 15.712,12c0,7.583 -5.133,10.754 -11.808,11.425l12.837,18.529l-7.5,0l-12.216,-18.046l-7.392,0l-0,18.046l-6.983,0l-0,-41.954Zm14.991,51.65c17.767,-0 31.521,-13.246 31.521,-30.817c0,-17.183 -13.754,-30.433 -31.521,-30.433c-17.971,-0 -31.725,13.25 -31.725,30.433c0,17.571 13.754,30.817 31.725,30.817m0,-66.529c20.946,-0 38.504,15.454 38.504,35.712c0,20.642 -17.558,36.096 -38.504,36.096c-21.05,0 -38.708,-15.454 -38.708,-36.096c-0,-20.258 17.658,-35.712 38.708,-35.712" style="fill:#1a171b;fill-rule:nonzero;"/><path d="M2070.16,29.098c-1.562,7.717 -11.558,9.517 -14.954,15.967c-26.187,13.85 -45.196,20.158 -71.887,39.338c-121.504,87.166 -233.213,193.979 -324.759,306c-9.641,5.837 -13.962,15.408 -26.591,19.133c-1.942,2.471 5.316,3.996 2.575,8.425c-9.317,12.492 -26.392,14.079 -42.763,21.983c-6.896,-7.671 -12.554,-17.112 -17.15,-28.066c3.434,-4.909 12.5,-7.975 16.208,-15.092c-1.8,-5.046 -7.27,-4.888 -9.425,-9.433c4.834,-23.5 24.03,-40.638 39.53,-59.171c47.483,-56.717 95.891,-113.146 153.266,-163.625c41.213,-36.229 73.292,-65.146 116.146,-97.092c22.617,-16.842 43.779,-33.379 76.417,-39.025c13.012,3.513 33.737,3.117 43.258,-6.508c20.242,-1.538 39.9,2.975 60.129,7.166" style="fill:#1a171b;"/><path d="M1277.1,185.609c0.308,1.775 0.625,3.571 0.95,5.371c2.25,1.687 2.904,-1.838 5.567,0.129c69.729,83.346 163.604,144.166 231.65,236.783c12.633,2.679 25.358,14.821 23.129,30.367c-10.3,5.6 -15.729,14.329 -25.929,16.787c-9.871,2.35 -19.35,-8.3 -27.488,1.496c-88.696,-64.733 -170.404,-139.379 -275.562,-183.504c2.375,-21.629 24.837,-29.196 27.754,-50.421c-2.667,-2.937 -7.958,-2.121 -9.942,-6.037c6.984,-16.496 24.55,-24.921 31.946,-41.025c8.288,-5.692 5.85,-7.755 17.925,-9.946" style="fill:#1a171b;"/><path d="M1604.81,161.13c-3.592,5.029 -3.392,12.712 -4.308,19.633c-6.4,3.729 -16.575,3.829 -26.55,6.896c-2.796,3.704 -3.455,8.912 -4.184,14.062c19.392,-0.791 44.992,0.425 63.546,7.684c-2.533,4.204 -5.362,8.195 -7.783,12.479c3.841,6.646 9.212,11.125 13.991,16.416c-10.058,35.296 -49.283,57.496 -88.137,73.271c-13.788,5.613 -50.675,-3.541 -60,-12.737c-9.696,-9.588 -15.413,-28.288 -17.784,-37.95c-12.333,-50.021 44.109,-100.909 85.288,-108.317c13.888,-2.517 30.596,-4.079 45.921,8.563" style="fill:#1a171b;"/><path d="M1504.74,513.046c-4.491,7.25 5.888,15.179 11.338,20.209c-1.542,4.545 0.971,7.4 -3.675,10.625c0.796,3.387 6.054,0.379 6.321,4.45c-0.859,15.125 -8.338,25.612 -18.371,34.345c0.9,2.513 -1.558,2.663 -0.125,5.559c-68.946,91.871 -107.75,211.258 -153.225,321.321c-12.938,31.3 -25.446,65.412 -36.508,95.262c-8.296,22.413 -12.663,46.688 -16.421,70.65c-4.971,5.946 -8.354,13.038 -12.046,19.904c0.783,4.717 5.325,4.088 6.025,8.909c-4.342,6.716 -10.013,12.5 -15.654,18.32c-3.596,0.634 -3.617,-3.833 -6.334,-4.437c-15.12,6.15 -45.833,9.817 -57.966,-7.542c-14.534,21.125 -37.638,15.35 -48.4,-3.683c28.587,-101.758 81.15,-186.754 124.146,-278.421c49.708,-110.083 118.512,-210.312 188.65,-303.129c10.27,-0.979 15.116,-11.438 22.87,-15.133c2.917,1.225 6.775,1.1 9.375,2.791" style="fill:#1a171b;"/><path d="M1574.62,506.255c0.887,-0.342 1.066,-0.592 2.179,-0.817c4.162,-0.712 12.971,6.567 21.579,3.309c129.733,107.3 238.454,244.604 348.971,379.358c75.866,76.779 138.071,173.125 204.212,263.817c4.396,18.854 -21.433,30.25 -34.796,29.462c-15.545,13.271 -33.725,16.984 -51.708,27.996c-8.012,-6.517 -17.567,-10.858 -22.662,-21.542c-8.896,3.409 -13.809,3.888 -22.063,7.209c-2.975,-2.904 -5.7,-6.209 -7.467,-10.9c-18.391,6.566 -28.116,19.458 -42.375,24.125c-9.254,-1.8 -8.72,-10.063 -11.666,-15.684c-36.013,-68.933 -83.817,-132.195 -118.942,-202.27c-12.817,-25.521 -31.125,-48.759 -46.183,-72.921c-27.15,-43.509 -50.267,-89.634 -81.575,-128.884c-37.684,-60.787 -69.571,-123.216 -109.775,-181.641c-16.659,-24.188 -33.575,-44.263 -45.479,-75.263c0.691,-11.691 11.133,-22.121 17.429,-24.091l0.321,-1.263Z" style="fill:#1a171b;"/><path d="M1495.36,510.255c-7.754,3.695 -12.6,14.15 -22.87,15.133c-70.138,92.817 -138.942,193.046 -188.65,303.129c-42.996,91.667 -95.559,176.663 -124.146,278.421c10.762,19.029 33.866,24.808 48.4,3.683c12.133,17.359 42.846,13.692 57.966,7.538c2.717,0.608 2.738,5.075 6.334,4.441c5.641,-5.825 11.312,-11.604 15.654,-18.32c-0.7,-4.821 -5.242,-4.192 -6.025,-8.909c3.692,-6.866 9.087,-10.3 12.046,-19.904c3.758,-23.962 8.125,-48.237 16.421,-70.65c11.062,-29.85 23.57,-63.962 36.508,-95.262c45.475,-110.063 84.279,-229.45 153.225,-321.321c-1.433,-2.896 0.433,-3.292 1.6,-6.875c10.033,-8.729 16.037,-17.904 16.896,-33.029c-0.267,-4.071 -5.525,-1.063 -6.321,-4.45c4.646,-3.225 2.133,-6.08 3.675,-10.625c-5.45,-5.03 -15.829,-12.959 -11.338,-20.209c-2.6,-1.691 -6.458,-1.566 -9.375,-2.791m63.53,-357.688c-41.18,7.408 -97.621,58.296 -85.288,108.317c2.371,9.662 8.088,28.362 17.783,37.95c9.325,9.196 46.213,18.35 60,12.737c38.855,-15.775 78.08,-37.975 88.138,-73.275c-4.779,-5.287 -10.15,-9.766 -13.992,-16.412c2.421,-4.284 5.25,-8.275 7.784,-12.479c-18.555,-7.259 -44.155,-8.475 -63.546,-7.684c0.729,-5.15 1.387,-10.358 4.183,-14.062c9.975,-3.067 20.15,-3.167 26.55,-6.896c0.917,-6.921 0.717,-14.604 4.308,-19.633c-15.325,-12.642 -32.029,-11.08 -45.92,-8.563m451.145,-130.633c-9.52,9.621 -30.25,10.016 -43.258,6.504c-32.637,5.65 -53.8,22.183 -76.421,39.025c-42.854,31.946 -74.929,60.867 -116.146,97.092c-57.37,50.479 -105.779,106.908 -153.262,163.629c-15.504,18.529 -34.696,35.666 -39.529,59.171c2.15,4.545 7.625,4.387 9.425,9.433c-3.709,7.117 -12.775,10.183 -16.209,15.092c4.592,10.954 10.255,20.391 17.15,28.062c16.371,-7.9 33.442,-9.487 42.763,-21.979c2.742,-4.433 -4.517,-5.954 -2.575,-8.429c12.629,-3.721 16.95,-13.292 26.587,-19.134c91.55,-112.016 203.259,-218.829 324.763,-305.995c26.692,-19.184 45.7,-25.488 71.887,-39.342c3.392,-6.446 13.392,-8.25 14.955,-15.967c-20.234,-4.187 -39.892,-8.7 -60.13,-7.162" style="fill:#1a171b;"/></g></svg>